<svg width="512" height="512" viewBox="0 0 512 512" fill="none" xmlns="http://www.w3.org/2000/svg">
<g clip-path="url(#clip0_969_18)">
<path d="M107.793 210.668C76.734 208.604 59.5636 173.705 76.8525 147.856C79.3943 144.067 82.557 140.732 86.2074 137.994C61.323 119.318 65.975 80.6973 94.598 68.4665C102.921 64.9143 112.196 64.2572 120.937 66.6004C129.678 68.9436 137.38 74.1517 142.811 81.3909C161.453 56.4726 200.073 61.0909 212.338 89.6969C216.398 99.1703 216.669 109.811 213.15 119.47" stroke="#191919" stroke-width="24" stroke-linecap="round" stroke-linejoin="round"/>
<path d="M404.207 210.668C435.266 208.604 452.436 173.705 435.13 147.856C432.588 144.067 429.426 140.732 425.775 137.994C450.677 119.318 446.025 80.6973 417.402 68.4665C409.078 64.9143 399.804 64.2572 391.063 66.6004C382.322 68.9436 374.62 74.1517 369.189 81.3909C350.547 56.4726 311.909 61.0909 299.662 89.6969C295.629 99.1602 295.339 109.801 298.85 119.47" stroke="#191919" stroke-width="24" stroke-linecap="round" stroke-linejoin="round"/>
<path d="M256 437.131C345.303 437.131 417.689 364.728 417.689 275.425C417.689 186.122 345.286 113.735 255.983 113.735C213.103 113.744 171.982 130.782 141.661 161.103C111.34 191.424 94.3024 232.545 94.2935 275.425C94.2935 364.745 166.697 437.131 255.983 437.131" stroke="#191919" stroke-width="24" stroke-linecap="round" stroke-linejoin="round"/>
<path d="M256 340.114C299.56 340.114 326.779 292.951 305.008 255.21C300.032 246.612 292.883 239.473 284.279 234.509C275.675 229.545 265.917 226.929 255.983 226.925C212.423 226.925 185.187 274.089 206.975 311.813C211.949 320.414 219.096 327.556 227.701 332.523C236.305 337.491 246.065 340.108 256 340.114Z" stroke="#191919" stroke-width="24" stroke-linecap="round" stroke-linejoin="round"/>
<path d="M361.103 283.511C361.103 364.424 273.509 414.988 203.44 374.523C187.462 365.302 174.194 352.036 164.97 336.059C155.746 320.083 150.893 301.959 150.897 283.511M199.397 170.322V218.839M223.655 194.58H175.155M312.586 170.322V218.839M336.862 194.58H288.345" stroke="#191919" stroke-width="24" stroke-linecap="round" stroke-linejoin="round"/>
<line x1="385.118" y1="385.182" x2="441.965" y2="442.03" stroke="black" stroke-width="24" stroke-linecap="round"/>
</g>
<defs>
<clipPath id="clip0_969_18">
<rect width="406" height="406" fill="white" transform="translate(53 53)"/>
</clipPath>
</defs>
</svg>
